<svg width="48" height="48" viewBox="0 0 48 48" xmlns="http://www.w3.org/2000/svg">
  <defs>
    <linearGradient id="heartGradient" x1="0%" y1="0%" x2="100%" y2="100%">
      <stop offset="0%" style="stop-color:#4F7CAC;stop-opacity:0.9"/>
      <stop offset="100%" style="stop-color:#25282F;stop-opacity:0.8"/>
    </linearGradient>
    <linearGradient id="waveGradient" x1="0%" y1="0%" x2="100%" y2="0%">
      <stop offset="0%" style="stop-color:#4F7CAC;stop-opacity:0.6"/>
      <stop offset="50%" style="stop-color:#6366f1;stop-opacity:0.8"/>
      <stop offset="100%" style="stop-color:#4F7CAC;stop-opacity:0.6"/>
    </linearGradient>
  </defs>
  
  <!-- Ondes sonores (arrière-plan) -->
  <path d="M8 24 Q16 16, 24 24 Q32 32, 40 24" stroke="url(#waveGradient)" stroke-width="2" fill="none" opacity="0.4"/>
  <path d="M6 24 Q18 12, 24 24 Q30 36, 42 24" stroke="url(#waveGradient)" stroke-width="1.5" fill="none" opacity="0.3"/>
  <path d="M10 24 Q20 20, 24 24 Q28 28, 38 24" stroke="url(#waveGradient)" stroke-width="1.5" fill="none" opacity="0.5"/>
  
  <!-- Cœur central -->
  <path d="M24 36 C18 30, 12 24, 18 18 C21 15, 24 18, 24 18 C24 18, 27 15, 30 18 C36 24, 30 30, 24 36 Z" 
        fill="url(#heartGradient)" stroke="#4F7CAC" stroke-width="1"/>
</svg>